<svg id="Layer_1" height="512" viewBox="0 0 512 512" width="512" xmlns="http://www.w3.org/2000/svg" data-name="Layer 1"><path d="m464.362 287.02h28.466v26.455h-28.466z" fill="#e5f5fd" transform="matrix(.67 -.742 .742 .67 -64.994 454.235)"/><path d="m478.87 319.68-28.21 31.22-19.63-17.73.29-.33 27.92-30.9z" fill="#a6b7d0"/><path d="m444.734 269.289h28.462v26.452h-28.462z" fill="#a6b7d0" transform="matrix(.67 -.742 .742 .67 -58.343 433.696)"/><path d="m459.24 301.94-27.92 30.9-.29.33-19.63-17.73 28.21-31.23z" fill="#e5f5fd"/><path d="m423.33 391.32-20.95 23.19-13.09-11.82 20.96-23.2z" fill="#a6b7d0"/><path d="m392.96 352-32.77 36.28 23.19 20.95 32.78-36.28z" fill="#ed6337"/><path d="m340.532 344.037h48.892v31.256h-48.892z" fill="#50a6ea" transform="matrix(.67 -.742 .742 .67 -146.575 389.357)"/><path d="m319.988 439.314h42.085v26.452h-42.085z" fill="#a6b7d0" transform="matrix(.67 -.742 .742 .67 -223.387 402.265)"/><path d="m351.48 311.82 6.47 32.31-9.13 10.11-32.8-3.15z" fill="#fadf4a"/><path d="m300.36 421.58h42.081v26.455h-42.081z" fill="#e5f5fd" transform="matrix(.67 -.742 .742 .67 -216.7 381.852)"/><path d="m303.154 465.489h28.462v26.452h-28.462z" fill="#e5f5fd" transform="matrix(.67 -.742 .742 .67 -250.601 393.314)"/><path d="m323.66 213.86a110.162 110.162 0 0 1 -4.13 29.97l-3.16.32c-.26.03-.51.05-.77.06l-2.66.12a18.5 18.5 0 0 0 -16.19 11.1l-.68 1.55a14.567 14.567 0 0 1 -13.35 8.72h-11.35a5.255 5.255 0 0 1 -5.24-4.74l-.45-4.54a18.43 18.43 0 0 0 -8.38-13.7 6.478 6.478 0 0 1 -2.98-5.46v-4.55a8.909 8.909 0 0 1 3.01-6.66l19.38-17.12a19.1 19.1 0 0 0 5.62-19.8 19.477 19.477 0 0 0 -16.24-13.67l-1.96-.24a9.514 9.514 0 0 1 -6.03-3.19 5.421 5.421 0 0 1 -.66-6.21l4.06-6.93a139.376 139.376 0 0 1 17.65-23.89l4.38-6.1a109.777 109.777 0 0 1 40.13 84.96z" fill="#9be147"/><path d="m316.37 244.15 3.16-.32a110.018 110.018 0 0 1 -215.87-29.97q0-5.19.48-10.26l1.32.12 1.5-.3a17.419 17.419 0 0 1 18.4 8.35 17.593 17.593 0 0 0 3.16 3.97l7.82 7.36a11.708 11.708 0 0 0 4.95 2.78l.91.25a15.9 15.9 0 0 1 11.1 11.05l4.19 15.13a14.876 14.876 0 0 0 2.5 5.02l12.7 16.65a16.038 16.038 0 0 1 3.07 7.09l3.45 20.72a3.072 3.072 0 0 0 1.07 1.9 2.963 2.963 0 0 0 2.98.42 5.864 5.864 0 0 0 3.57-4.87 21.047 21.047 0 0 1 4.85-11.49l3.69-4.42a7.824 7.824 0 0 0 1.44-2.66l3.78-12.27a18.209 18.209 0 0 1 6.34-9.12l11.25-8.64a4.037 4.037 0 0 0 1.55-2.51 3.835 3.835 0 0 0 -.86-3.11l-7.49-8.81c-.45-.53-.88-1.07-1.28-1.64l-5.72-7.98a16.618 16.618 0 0 0 -13.67-7.2 2.851 2.851 0 0 1 -1.56-.41l-11.7-7.02a11.393 11.393 0 0 0 -11.18-.27l-6.17 3.3a12.12 12.12 0 0 1 -15.96-4.19l-5.99-9.46a13.036 13.036 0 0 1 .22-14.27 14.676 14.676 0 0 1 14.06-6.36l8.99 1.14a8.08 8.08 0 0 0 8.02-3.84 14.2 14.2 0 0 1 14.07-6.95l3.93.5a8 8 0 0 0 7.32-3.04l3.46-4.49a11.692 11.692 0 0 0 .35-13.84l-7.47-10.77a34.456 34.456 0 0 0 -10.93-10.12 32.965 32.965 0 0 1 -3.29-2.19l-6.29-4.72-7.96-6a110.073 110.073 0 0 1 120.9 12.51l-4.38 6.1a139.376 139.376 0 0 0 -17.65 23.89l-4.06 6.93a5.421 5.421 0 0 0 .66 6.21 9.514 9.514 0 0 0 6.03 3.19l1.96.24a19.477 19.477 0 0 1 16.24 13.67 19.1 19.1 0 0 1 -5.62 19.8l-19.38 17.12a8.909 8.909 0 0 0 -3.01 6.66v4.55a6.478 6.478 0 0 0 2.98 5.46 18.43 18.43 0 0 1 8.38 13.7l.45 4.54a5.255 5.255 0 0 0 5.24 4.74h11.35a14.567 14.567 0 0 0 13.35-8.72l.68-1.55a18.5 18.5 0 0 1 16.19-11.1l2.66-.12c.26-.01.51-.03.77-.06z" fill="#49bdff"/><path d="m283.522 447.755h28.466v26.455h-28.466z" fill="#a6b7d0" transform="matrix(.67 -.742 .742 .67 -243.899 372.81)"/><path d="m218.87 245.02a3.835 3.835 0 0 1 .86 3.11 4.037 4.037 0 0 1 -1.55 2.51l-11.25 8.64a18.209 18.209 0 0 0 -6.34 9.12l-3.78 12.27a7.824 7.824 0 0 1 -1.44 2.66l-3.69 4.42a21.047 21.047 0 0 0 -4.85 11.49 5.864 5.864 0 0 1 -3.57 4.87 2.963 2.963 0 0 1 -2.98-.42 3.072 3.072 0 0 1 -1.07-1.9l-3.45-20.72a16.038 16.038 0 0 0 -3.07-7.09l-12.7-16.65a14.876 14.876 0 0 1 -2.5-5.02l-4.19-15.13a15.9 15.9 0 0 0 -11.1-11.05l-.91-.25a11.708 11.708 0 0 1 -4.95-2.78l-7.82-7.36a17.593 17.593 0 0 1 -3.16-3.97 17.419 17.419 0 0 0 -18.4-8.35l-1.5.3-1.32-.12a110.01 110.01 0 0 1 58.49-87.21l7.96 6 6.29 4.72a32.965 32.965 0 0 0 3.29 2.19 34.456 34.456 0 0 1 10.93 10.12l7.47 10.77a11.692 11.692 0 0 1 -.35 13.84l-3.46 4.49a8 8 0 0 1 -7.32 3.04l-3.93-.5a14.2 14.2 0 0 0 -14.07 6.95 8.08 8.08 0 0 1 -8.02 3.84l-8.99-1.14a14.676 14.676 0 0 0 -14.06 6.36 13.036 13.036 0 0 0 -.22 14.27l5.99 9.46a12.12 12.12 0 0 0 15.96 4.19l6.17-3.3a11.393 11.393 0 0 1 11.18.27l11.7 7.02a2.851 2.851 0 0 0 1.56.41 16.618 16.618 0 0 1 13.67 7.2l5.72 7.98c.4.57.83 1.11 1.28 1.64z" fill="#9be147"/><path d="m213.66 103.86a109.527 109.527 0 0 0 -51.03 12.53l7.96 6 6.29 4.72a32.965 32.965 0 0 0 3.29 2.19 34.636 34.636 0 0 1 5.269 3.8l1.191-.715a110.155 110.155 0 0 1 96.376-2.761l.524-.729a109.474 109.474 0 0 0 -69.87-25.035z" fill="#55d8d8"/><path d="m127.66 229.86q0-5.19.48-10.26l.38-3.86a17.593 17.593 0 0 1 -3.16-3.97 17.419 17.419 0 0 0 -18.4-8.35l-1.5.3-1.32-.12q-.48 5.07-.48 10.26a110 110 0 0 0 61.576 98.787 109.735 109.735 0 0 1 -37.576-82.787z" fill="#55d8d8"/><path d="m128.563 215.781a110.026 110.026 0 0 1 56.829-82.717 34.52 34.52 0 0 0 -5.222-3.764 32.965 32.965 0 0 1 -3.29-2.19l-6.29-4.72-7.96-6a110.01 110.01 0 0 0 -58.49 87.21l1.32.12 1.5-.3a17.419 17.419 0 0 1 18.4 8.35 17.593 17.593 0 0 0 3.16 3.97z" fill="#d8ff33"/><g fill="#284268"><path d="m501.971 294.1-39.264-35.467a6 6 0 0 0 -8.474.431l-47.289 52.352a6 6 0 0 0 .431 8.474l15.18 13.711-18.425 20.399-30.34-27.406a6 6 0 0 0 -8.474.43l-3.826 4.236-4.124-20.614a6 6 0 0 0 -10.336-2.846l-13.711 15.18-4.031-3.641a14.809 14.809 0 1 0 -13.761 9.3q.384 0 .77-.019a14.884 14.884 0 0 0 4.376-.894l4.6 4.157-13.711 15.179a6 6 0 0 0 3.878 10l20.926 2.013-3.826 4.235a6 6 0 0 0 .431 8.475l30.339 27.405-18.424 20.4-15.18-13.711a6 6 0 0 0 -8.474.43l-47.289 52.352a6 6 0 0 0 .431 8.474l39.266 35.465a6 6 0 0 0 8.473-.43l47.287-52.356a6 6 0 0 0 -.43-8.475l-15.18-13.711 18.425-20.4 7.145 6.455a6 6 0 0 0 8.474-.431l1.89-2.092 8.635 7.8a6 6 0 0 0 4.022 1.547c.1 0 .2 0 .305-.008a6 6 0 0 0 4.147-1.97l20.951-23.195a6 6 0 0 0 -.431-8.474l-8.634-7.8 1.888-2.091a6 6 0 0 0 -.43-8.475l-7.145-6.454 18.425-20.4 15.18 13.711a6 6 0 0 0 8.473-.43l47.29-52.346a6 6 0 0 0 -.43-8.474zm-175.854 124.7 10.727 9.69-20.165 22.325-10.728-9.69zm-39.245 43.447 11.036-12.217 10.727 9.689-11.035 12.217zm30.358 27.423-10.726-9.69 11.036-12.217 10.727 9.689zm39.246-43.446-20.165 22.324-10.728-9.69 20.166-22.324zm-28.011-99.967 19.474-21.557 3.532 17.655-5.083 5.628zm31.294 33.551-14.29-12.908 24.73-27.377 14.289 12.908zm23.194 20.951-14.289-12.909 24.73-27.378 14.289 12.908zm31.906-9.012-12.907 14.29-4.182-3.779 12.907-14.289zm44.257-120.185 10.727 9.69-11.036 12.217-10.727-9.689zm-28.516 53.138-10.727-9.689 20.165-22.324 10.728 9.689zm19.631 17.734-10.727-9.69 20.166-22.324 10.727 9.689zm28.207-31.234-10.726-9.69 11.036-12.218 10.727 9.69z"/><path d="m134.1 36.311a5.974 5.974 0 0 0 2.386-.5l.885-.382a6 6 0 1 0 -4.721-11.029l-.943.407a6 6 0 0 0 2.393 11.504z"/><path d="m200.363 407.408-.968-.067a6 6 0 0 0 -.864 11.968l1.026.072c.136.009.273.014.409.014a6 6 0 0 0 .4-11.987z"/><path d="m316.71 391.306a5.968 5.968 0 0 0 3.093-.863l.872-.528a6 6 0 1 0 -6.237-10.252l-.833.5a6 6 0 0 0 3.1 11.138z"/><path d="m173.1 23.972a5.985 5.985 0 0 0 1.219-.125l.941-.191a6 6 0 0 0 -2.347-11.768l-1.021.207a6 6 0 0 0 1.208 11.877z"/><path d="m14.708 192.462a6.076 6.076 0 0 0 .815.055 6 6 0 0 0 5.938-5.192l.133-.954a6 6 0 0 0 -11.881-1.689l-.143 1.027a6 6 0 0 0 5.138 6.753z"/><path d="m161.253 400.7-.934-.264a6 6 0 1 0 -3.289 11.54l.991.28a6 6 0 0 0 3.232-11.556z"/><path d="m46.486 103.864a6 6 0 0 0 -8.256 1.96l-.538.878a6 6 0 1 0 10.246 6.246l.509-.829a6 6 0 0 0 -1.961-8.255z"/><path d="m31.18 147.848a6 6 0 0 0 -11.291-4.062l-.346.964a6 6 0 1 0 11.305 4.025z"/><path d="m40.888 302.182a6 6 0 1 0 -10.68 5.473l.474.917a6 6 0 1 0 10.646-5.536z"/><path d="m62.507 335.474a6 6 0 0 0 -9.354 7.517l.649.8a6 6 0 0 0 9.312-7.569z"/><path d="m91.174 364.306-.746-.611a6 6 0 1 0 -7.637 9.255l.8.658a6 6 0 0 0 7.582-9.3z"/><path d="m124.344 386.119-.867-.454a6 6 0 0 0 -5.577 10.626l.911.475a6 6 0 1 0 5.533-10.647z"/><path d="m63.912 72.4-.707.751a6 6 0 1 0 8.762 8.2l.664-.7a6 6 0 0 0 -8.719-8.251z"/><path d="m20.1 227.006-.063-.963a6 6 0 0 0 -11.977.738l.067 1.033a6 6 0 0 0 5.98 5.6c.136 0 .273 0 .411-.014a6 6 0 0 0 5.582-6.394z"/><path d="m213.811 19.927.964.073h.037a6.071 6.071 0 0 0 .034-12.14h-1.035a6 6 0 0 0 -6 6 6.06 6.06 0 0 0 6 6.067z"/><path d="m240.043 406.079-.963.128a6 6 0 1 0 1.563 11.9l1.019-.136a6 6 0 1 0 -1.619-11.89z"/><path d="m26.526 265.194a6 6 0 1 0 -11.576 3.162l.278 1a6 6 0 1 0 11.554-3.236z"/><path d="m291.1 35.928.891.391a6 6 0 0 0 4.856-10.974l-.948-.416a6 6 0 0 0 -4.8 11z"/><path d="m253.287 23.905.953.2a6 6 0 1 0 2.5-11.737l-1-.211a6 6 0 0 0 -2.445 11.748z"/><path d="m278.611 396.72-.92.324a6 6 0 1 0 3.957 11.328l.967-.341a6 6 0 1 0 -4-11.311z"/><path d="m101.9 55.265.784-.549a6 6 0 1 0 -6.858-9.848l-.851.6a6 6 0 1 0 6.925 9.8z"/><path d="m329.662 213.857a116 116 0 1 0 -116 116 116.132 116.132 0 0 0 116-116zm-45.638-75.364.5-.688a103.9 103.9 0 0 1 30.249 100.436l-2.1.095a24.443 24.443 0 0 0 -21.4 14.682l-.682 1.7a8.725 8.725 0 0 1 -7.873 5.282h-10.683l-.387-4.024a24.7 24.7 0 0 0 -11.255-18.221c-.152-.1-.393-.318-.393-.5v-4.543a3.072 3.072 0 0 1 1.141-2.17l19.459-17.113a25.133 25.133 0 0 0 7.431-26.042 25.445 25.445 0 0 0 -21.231-17.878l-1.945-.24a3.56 3.56 0 0 1 -1.956-.9l3.779-6.456a133.383 133.383 0 0 1 16.886-22.858 6.042 6.042 0 0 0 .46-.562zm-121.879-14.954 11.131 8.371a40.429 40.429 0 0 0 3.866 2.569 28.733 28.733 0 0 1 9.031 8.363l7.462 10.762a5.712 5.712 0 0 1 -.171 6.767l-3.459 4.49a1.991 1.991 0 0 1 -1.805.75l-3.929-.5a20.166 20.166 0 0 0 -20.016 9.882 2.093 2.093 0 0 1 -2.083.91l-8.982-1.14a20.612 20.612 0 0 0 -19.783 8.941 19.018 19.018 0 0 0 -.322 20.847l5.989 9.457a18.188 18.188 0 0 0 23.862 6.276l6.165-3.3a5.359 5.359 0 0 1 5.263.128l11.7 7.021a8.889 8.889 0 0 0 4.8 1.262 10.638 10.638 0 0 1 8.637 4.7l5.724 7.978c.5.7 1.032 1.378 1.582 2.024l6.023 7.087-9.556 7.338a24.156 24.156 0 0 0 -8.419 12.112l-3.784 12.266a1.718 1.718 0 0 1 -.319.59l-3.682 4.428a27.977 27.977 0 0 0 -3.77 5.882l-1.62-9.715a22.125 22.125 0 0 0 -4.217-9.747l-12.7-16.656a8.726 8.726 0 0 1 -1.482-2.984l-4.193-15.125a21.941 21.941 0 0 0 -15.3-15.239l-.914-.25a5.734 5.734 0 0 1 -2.415-1.353l-7.819-7.359a11.718 11.718 0 0 1 -2.091-2.628 23.466 23.466 0 0 0 -19.524-11.634 104.261 104.261 0 0 1 51.12-73.571zm51.517 194.318a104.118 104.118 0 0 1 -104-104c0-1.591.042-3.172.113-4.746a11.466 11.466 0 0 1 10.4 5.686 23.7 23.7 0 0 0 4.228 5.317l7.821 7.36a17.777 17.777 0 0 0 7.481 4.191l.914.25a9.886 9.886 0 0 1 6.9 6.867l4.193 15.124a20.688 20.688 0 0 0 3.5 7.058l12.7 16.655a10.1 10.1 0 0 1 1.922 4.442l3.453 20.715a8.931 8.931 0 0 0 8.839 7.557 8.911 8.911 0 0 0 3.451-.694 11.823 11.823 0 0 0 7.217-9.851 14.957 14.957 0 0 1 3.5-8.2l3.682-4.428a13.623 13.623 0 0 0 2.559-4.727l3.781-12.268a12.231 12.231 0 0 1 4.261-6.129l11.252-8.64a9.965 9.965 0 0 0 3.825-6.323 9.842 9.842 0 0 0 -2.22-7.939l-7.493-8.817c-.338-.4-.663-.812-.969-1.24l-5.726-7.98a22.593 22.593 0 0 0 -17.754-9.706l-10.958-6.574a17.418 17.418 0 0 0 -17.1-.416l-6.165 3.3a6.142 6.142 0 0 1 -8.056-2.12l-5.99-9.457a7.021 7.021 0 0 1 .12-7.7 8.679 8.679 0 0 1 8.333-3.766l8.984 1.141a14.045 14.045 0 0 0 13.968-6.782 8.2 8.2 0 0 1 8.126-4.011l3.928.5a14.02 14.02 0 0 0 12.827-5.327l3.46-4.49a17.672 17.672 0 0 0 .528-20.93l-7.463-10.759a40.8 40.8 0 0 0 -12.834-11.878 28.9 28.9 0 0 1 -2.72-1.808l-6.237-4.691a103.829 103.829 0 0 1 101.02 12.5l-.783 1.09a145.421 145.421 0 0 0 -18.157 24.647l-4.091 6.994a11.384 11.384 0 0 0 1.353 13.129 15.552 15.552 0 0 0 9.813 5.2l1.956.24a13.464 13.464 0 0 1 11.23 9.449 13.081 13.081 0 0 1 -3.852 13.567l-19.532 17.113a15.062 15.062 0 0 0 -5.2 11.163v4.543a12.611 12.611 0 0 0 5.886 10.506 12.523 12.523 0 0 1 5.741 9.257l.493 4.683a11.4 11.4 0 0 0 11.254 10.296h11.344a20.727 20.727 0 0 0 18.849-12.458l.682-1.627a12.552 12.552 0 0 1 8.689-7.24 104.138 104.138 0 0 1 -97.276 67.182z"/></g></svg>